PathFileType	4	(X/Y/Z)	Kaydara																																																																																																																									
DataRate	CameraRate	NumFrames	NumMarkers	Units	OrigDataRate	OrigDataStartFrame	OrigNumFrames																																																																																																																					
30	30	8	41	mm	30	129	147																																																																																																																					
Frame#	Time	NABA_LFHD			NABA_RFHD			NABA_LBHD			NABA_RBHD			NABA_LFTShould			NABA_RFTShould			NABA_LRRShould			NABA_RRRShould			NABA_T10			NABA_STRN			NABA_TRUN			NABA_LSHO			NABA_LUPA			NABA_LELB			NABA_LFRM			NABA_LWRA			NABA_LWRB			NABA_LFIN			NABA_RSHO			NABA_RUPA			NABA_RELB			NABA_RFRM			NABA_RWRA			NABA_RWRB			NABA_RFIN			NABA_LFWT			NABA_RFWT			NABA_LBWT			NABA_RBWT			NABA_LTHI			NABA_LKNE			NABA_LSHN			NABA_LANK			NABA_LHEE			NABA_LTOE			NABA_RTHI			NABA_RKNE			NABA_RSHN			NABA_RANK			NABA_RHEE			NABA_RTOE		
		X1	Y1	Z1	X2	Y2	Z2	X3	Y3	Z3	X4	Y4	Z4	X5	Y5	Z5	X6	Y6	Z6	X7	Y7	Z7	X8	Y8	Z8	X9	Y9	Z9	X10	Y10	Z10	X11	Y11	Z11	X12	Y12	Z12	X13	Y13	Z13	X14	Y14	Z14	X15	Y15	Z15	X16	Y16	Z16	X17	Y17	Z17	X18	Y18	Z18	X19	Y19	Z19	X20	Y20	Z20	X21	Y21	Z21	X22	Y22	Z22	X23	Y23	Z23	X24	Y24	Z24	X25	Y25	Z25	X26	Y26	Z26	X27	Y27	Z27	X28	Y28	Z28	X29	Y29	Z29	X30	Y30	Z30	X31	Y31	Z31	X32	Y32	Z32	X33	Y33	Z33	X34	Y34	Z34	X35	Y35	Z35	X36	Y36	Z36	X37	Y37	Z37	X38	Y38	Z38	X39	Y39	Z39	X40	Y40	Z40	X41	Y41	Z41
																																																																																																																												
129	4.277	267.43496	1403.12714	1886.43341	97.1767	1400.2951	1914.37347	274.93435	1452.18704	1769.97299	60.90476	1450.87601	1832.81281	218.08054	1224.45862	1725.51392	71.4151	1212.41455	1752.40021	197.17571	1304.10461	1626.2944	49.93079	1300.88974	1662.2995	111.95565	1154.82262	1538.37051	159.0707	1164.73503	1778.65417	164.85792	1063.46497	1815.57083	302.10037	1252.28981	1659.67484	323.80024	1039.37126	1557.50992	350.06783	955.70831	1561.48911	350.03914	894.11148	1626.81213	340.0243	953.08624	1786.78772	400.62725	918.79311	1783.07571	402.46822	957.72484	1840.23605	-20.78172	1254.83391	1730.73761	-63.8815	1082.93167	1594.95255	-128.17841	970.03212	1605.0032	-119.88387	909.52888	1697.93839	-57.38191	959.62418	1829.38843	-120.14268	922.66998	1853.35953	-100.34418	940.30647	1892.77542	262.83958	865.90347	1716.78879	-2.57573	856.8351	1738.70361	206.66248	903.02498	1548.82278	22.56031	932.64557	1561.85944	262.4684	566.67549	1686.49689	261.92423	457.57809	1807.26852	211.35426	277.63302	1891.1264	234.39453	112.17774	1866.91025	176.4971	57.36907	1825.16571	203.62862	49.54416	2007.90848	-12.08368	581.54106	1583.23593	-1.82439	404.23321	1682.50824	7.21878	273.2736	1546.92719	7.92404	201.52052	1356.71585	58.51563	224.42106	1285.63553	32.79073	50.98736	1364.9823
130	4.31	268.12738	1408.40134	1947.74887	99.34175	1403.18893	1983.5376	270.17242	1459.99237	1831.74911	59.21597	1454.74411	1904.46686	214.2927	1236.43044	1790.21637	71.62927	1220.47379	1813.73764	195.27279	1316.69037	1692.40417	48.28928	1310.79056	1723.43674	114.4905	1168.92197	1597.10938	157.52451	1174.36935	1839.84344	164.72265	1071.15395	1872.7005	300.23052	1264.44237	1727.89093	326.46309	1056.58852	1618.14545	349.84295	967.46445	1618.60306	342.95189	886.64085	1659.63654	334.2524	883.07358	1831.47919	393.27026	844.87511	1812.22076	396.63464	857.62764	1879.93256	-20.54297	1260.9819	1792.80716	-59.85406	1103.85681	1644.34158	-125.74791	986.49246	1639.31717	-123.73817	897.97371	1706.22635	-67.83771	890.27817	1849.48212	-132.6502	849.91501	1855.51071	-114.9637	851.11252	1900.14023	271.85986	879.12308	1766.71997	6.71849	863.79807	1791.36383	209.23073	916.50925	1600.92865	25.21353	942.42264	1615.08026	271.21418	579.54021	1721.04568	271.88732	458.73592	1825.9465	218.54755	276.45056	1907.71698	239.42337	114.09163	1882.95013	182.03548	59.09286	1833.80707	204.48105	46.95143	2017.46643	-6.46791	577.11811	1665.93964	10.7568	412.93404	1790.30487	21.2072	285.12655	1653.47946	12.2019	230.41622	1458.3316	58.52164	262.16167	1386.38535	39.7489	87.2315	1452.34299
131	4.343	261.15374	1417.74948	2010.53665	92.34309	1409.71466	2046.02097	262.50204	1472.24594	1896.00708	51.69602	1462.89749	1968.34946	208.22775	1248.97865	1850.76233	66.18343	1232.63687	1872.51373	193.40687	1330.19226	1753.57025	45.70779	1321.44363	1782.05612	118.22001	1185.06088	1653.32993	153.08585	1185.46165	1896.44974	160.88844	1081.95168	1926.77567	299.50945	1276.3343	1789.99969	326.65783	1070.52948	1675.52979	346.98399	983.62572	1666.13266	336.35189	895.7341	1687.40356	330.08198	842.66815	1849.68903	387.93701	811.78452	1819.7377	393.53352	805.01648	1886.74774	-29.11346	1267.37801	1843.55377	-58.40799	1112.10518	1688.57758	-112.62877	995.79254	1674.32281	-118.69931	898.53218	1720.70297	-81.55864	858.14575	1861.29608	-146.31073	820.70808	1851.28281	-135.22901	811.88499	1896.79153	274.45232	895.26039	1819.66522	10.88799	877.62688	1840.20126	210.24668	933.28239	1650.63553	31.31844	956.39633	1664.51309	273.88763	589.45873	1748.7912	272.23402	459.80518	1843.43613	219.59452	275.79817	1913.57956	240.1907	115.67368	1878.84628	183.11056	60.02041	1833.58521	202.74557	45.46876	2016.73126	3.78011	584.29989	1746.65237	27.00952	437.35676	1895.39597	37.72506	300.80164	1769.25476	19.42304	236.55066	1577.31995	60.01183	267.00821	1500.49469	49.21777	96.00629	1579.19617
132	4.377	249.99359	1428.64258	2070.41718	80.61345	1419.23065	2103.28644	252.52745	1482.36847	1955.55679	40.66278	1471.52863	2024.70123	204.62543	1260.48126	1910.33203	61.25958	1240.53452	1924.46396	190.38483	1343.97293	1815.97458	42.25659	1330.86777	1835.50323	122.40828	1197.65366	1708.85315	146.09419	1196.05995	1952.56104	154.5489	1091.76399	1980.38818	296.14668	1291.67679	1853.69705	325.84755	1098.04581	1718.88641	349.97105	1011.28273	1707.30682	338.07652	922.08046	1718.45337	324.76013	852.66739	1875.03494	382.83924	824.9913	1844.38171	385.13058	810.84396	1912.80457	-33.06388	1275.94894	1893.57849	-43.44084	1135.37575	1728.96133	-102.09613	1019.19579	1699.58511	-105.78972	918.85864	1742.22717	-79.4606	875.75027	1887.99133	-140.73079	834.91135	1871.26984	-129.73097	823.84209	1918.77777	276.30892	905.57167	1873.94409	11.45472	886.73843	1888.36319	214.1427	948.35609	1702.0372	37.28161	967.72011	1714.23874	276.9842	600.69565	1777.60605	271.78175	463.67207	1861.091	217.69096	275.78316	1920.6813	239.61416	114.97037	1883.73856	183.12115	61.50094	1833.55118	201.15597	43.66792	2016.46408	13.79062	596.1702	1824.62387	43.46403	468.75317	1991.26602	50.66197	317.02263	1883.42133	25.16048	227.32622	1703.15918	61.95132	243.99235	1620.08438	60.21762	91.97583	1728.27774
133	4.41	238.38276	1437.03522	2125.57419	68.07699	1424.83688	2153.18115	243.39983	1490.94406	2010.81772	29.63962	1476.7569	2073.57376	200.20678	1269.8983	1963.95355	55.33817	1246.89476	1970.45029	188.54752	1351.63177	1868.16223	40.29857	1336.91315	1883.54462	126.32812	1204.74869	1758.75671	140.45957	1205.68771	2003.69476	149.23213	1101.75316	2031.44958	293.68454	1302.82913	1908.88428	328.19908	1117.95082	1772.50931	354.29958	1031.10275	1756.95892	344.45049	940.41832	1767.54059	324.67606	869.69612	1924.6312	384.22672	843.39684	1896.07498	382.94163	828.48625	1967.61688	-36.3444	1282.32941	1939.25125	-42.51795	1146.53503	1773.96439	-97.5182	1031.76437	1740.33264	-103.06402	930.86571	1782.36115	-74.53492	889.00063	1929.36295	-135.0281	847.31361	1912.57233	-123.58744	836.39969	1960.85449	278.60867	911.98158	1926.75522	12.54509	893.36777	1938.93066	220.46545	957.10609	1755.5304	41.07849	973.9621	1764.53293	279.59732	608.67512	1813.31833	272.10043	465.34634	1883.33832	215.99815	275.02338	1931.86584	239.40716	117.23352	1884.68735	182.75763	63.9681	1835.46371	199.59829	42.52057	2016.17462	21.99546	608.15205	1897.98752	55.15725	497.95044	2074.23737	58.88831	330.17365	1991.58997	31.23645	206.99928	1832.81036	70.11247	202.97205	1747.69257	61.92263	83.22978	1888.90976
134	4.443	229.6991	1442.52136	2173.26782	59.10298	1426.86676	2197.97394	235.56257	1496.62399	2058.66653	20.96278	1478.07495	2117.71271	197.20242	1273.44299	2013.03879	49.3801	1249.38873	2018.57849	186.80033	1353.04657	1915.81619	37.95497	1336.71661	1927.21832	128.74176	1202.92038	1808.58475	136.87705	1209.93088	2052.47681	146.16457	1106.661	2081.74591	291.67397	1306.5448	1959.37225	336.40553	1115.467	1833.25928	362.44904	1028.99605	1821.66656	353.03539	938.66005	1832.86743	327.71584	869.45488	1988.24112	390.30666	844.45618	1963.58368	386.44146	831.25237	2032.90741	-40.07919	1282.64435	1981.763	-40.79273	1142.7256	1819.47891	-91.70438	1026.6127	1786.86508	-96.35693	926.31889	1830.68863	-77.10994	887.93732	1979.31107	-135.42171	844.60541	1959.76486	-126.11988	833.84674	2008.07053	280.61195	913.95737	1978.58719	13.59613	898.95554	1992.10007	225.15055	957.6516	1810.44754	43.07195	974.04114	1815.36026	279.89433	611.95362	1852.8833	271.15913	464.45793	1917.71927	213.65543	272.46161	1953.32184	237.0775	116.72177	1896.55045	180.6119	67.50497	1839.49127	197.90136	41.47008	2018.30917	27.91979	615.46867	1964.77127	58.74964	516.57284	2144.70551	60.56553	336.37505	2093.23044	38.26788	178.95599	1966.98792	81.3586	154.02215	1885.80032	60.72969	73.67665	2052.85751
135	4.477	223.86593	1444.85321	2216.2056	53.05281	1427.65945	2238.89404	230.64062	1497.45178	2100.96054	15.24537	1477.51678	2157.55798	195.24731	1271.16623	2058.47855	49.5919	1247.29958	2063.5791	185.66628	1348.82523	1960.03326	36.28948	1331.71341	1969.77478	130.1638	1195.43427	1856.79962	135.06135	1207.64893	2099.77798	144.59712	1105.11177	2131.61575	289.5425	1304.56299	2008.21106	341.51207	1104.99649	1893.59131	365.9465	1019.82635	1884.78653	357.45407	929.88091	1895.7605	329.64901	858.03055	2048.37997	394.54056	835.60677	2026.21216	389.04388	822.31224	2094.60739	-42.15821	1278.53027	2024.48486	-36.28829	1134.17435	1867.53983	-90.37223	1015.72304	1837.47879	-96.46535	915.88806	1880.98465	-80.03885	876.28647	2028.35892	-139.01044	834.61525	2007.66022	-132.00183	823.84003	2054.79599	284.53295	910.88036	2032.0134	16.25954	894.45038	2047.18002	224.85321	951.88263	1864.28665	43.86162	967.94632	1869.30618	280.31202	611.57696	1897.23831	271.99053	461.11244	1954.0744	212.27158	265.70238	1975.34866	233.68526	115.9354	1903.54904	175.74415	69.67557	1843.61526	196.47692	41.06218	2019.18442	26.25206	612.42802	2023.56903	54.80117	519.8299	2205.03204	58.11778	335.31528	2187.5058	43.68788	149.97082	2107.14401	89.78045	107.87507	2035.02029	63.81223	69.38853	2216.22253
136	4.51	220.54531	1443.65158	2255.49316	49.93812	1424.90936	2278.80646	226.45451	1495.26672	2139.79004	11.32568	1473.68896	2197.1965	192.78772	1265.98022	2104.31976	48.84254	1240.62378	2109.17236	183.00722	1340.73792	2002.95227	33.91792	1322.72797	2012.37762	129.34801	1183.40614	1904.56879	133.12202	1202.23007	2146.33347	143.17197	1100.5011	2181.09528	286.68911	1298.65448	2053.22601	340.59452	1094.45496	1945.31799	365.4377	1008.47778	1940.2066	356.30669	918.52936	1950.71808	328.32542	843.73924	2101.4241	393.69442	822.14966	2079.37088	387.35172	807.19765	2147.21268	-44.163	1270.99487	2068.63968	-39.7597	1124.24973	1911.05698	-90.53717	1006.20468	1882.90436	-96.92602	907.10159	1928.26355	-80.35811	868.85246	2075.7048	-139.05306	826.66435	2054.88083	-131.58107	816.06628	2102.34573	285.99146	905.24124	2090.33844	16.91226	886.54572	2104.54803	221.21296	940.55679	1919.82056	45.68089	957.1862	1924.69757	282.54948	609.46697	1944.46823	273.47321	455.91949	1992.41852	211.04139	258.90781	1996.74179	233.45476	115.2341	1913.02856	175.96647	73.21546	1847.81738	195.7089	40.47266	2019.74182	21.93694	601.2674	2080.15915	46.16399	510.18196	2261.34644	51.90876	330.17517	2275.19684	45.91769	131.17841	2239.23584	95.35707	74.97866	2182.83768	65.75094	78.45464	2368.13766
